<?xml version="1.0" encoding="UTF-8" standalone="yes"?><svg xmlns="http://www.w3.org/2000/svg" xmlns:xlink="http://www.w3.org/1999/xlink" height="582pt" style="width:724px;height:582px;" version="1.1" viewBox="0 0 724 582" width="724pt"><defs><filter height="300%" id="f1" width="300%" x="-1" y="-1"><feGaussianBlur result="blurOut" stdDeviation="2.0"/><feColorMatrix in="blurOut" result="blurOut2" type="matrix" values="0 0 0 0 0 0 0 0 0 0 0 0 0 0 0 0 0 0 .4 0"/><feOffset dx="4.0" dy="4.0" in="blurOut2" result="blurOut3"/><feBlend in="SourceGraphic" in2="blurOut3" mode="normal"/></filter></defs><g><rect fill="#FEFECE" filter="url(#f1)" height="124.8281" style="stroke: #A80036; stroke-width: 1.5;" width="151" x="564" y="8.5"/><ellipse cx="615.75" cy="24.5" fill="#ADD1B2" rx="11" ry="11" style="stroke: #A80036; stroke-width: 1.0;"/><path d="M618.7188,30.1406 Q618.1406,30.4375 617.5,30.5859 Q616.8594,30.7344 616.1563,30.7344 Q613.6563,30.7344 612.3359,29.0859 Q611.0156,27.4375 611.0156,24.3125 Q611.0156,21.1875 612.3359,19.5313 Q613.6563,17.875 616.1563,17.875 Q616.8594,17.875 617.5078,18.0313 Q618.1563,18.1875 618.7188,18.4844 L618.7188,21.2031 Q618.0938,20.625 617.5,20.3516 Q616.9063,20.0781 616.2813,20.0781 Q614.9375,20.0781 614.25,21.1484 Q613.5625,22.2188 613.5625,24.3125 Q613.5625,26.4063 614.25,27.4766 Q614.9375,28.5469 616.2813,28.5469 Q616.9063,28.5469 617.5,28.2734 Q618.0938,28 618.7188,27.4219 L618.7188,30.1406 Z "/><text fill="#000000" font-family="sans-serif" font-size="12" lengthAdjust="spacingAndGlyphs" textLength="39" x="636.25" y="28.6543">village</text><line style="stroke: #A80036; stroke-width: 1.5;" x1="565" x2="714" y1="40.5" y2="40.5"/><text fill="#000000" font-family="sans-serif" font-size="11" lengthAdjust="spacingAndGlyphs" textLength="42" x="570" y="54.7104">int gold</text><text fill="#000000" font-family="sans-serif" font-size="11" lengthAdjust="spacingAndGlyphs" textLength="43" x="570" y="67.5151">int food</text><line style="stroke: #A80036; stroke-width: 1.5;" x1="565" x2="714" y1="74.1094" y2="74.1094"/><text fill="#000000" font-family="sans-serif" font-size="11" lengthAdjust="spacingAndGlyphs" textLength="81" x="570" y="88.3198">int count(type)</text><text fill="#000000" font-family="sans-serif" font-size="11" lengthAdjust="spacingAndGlyphs" textLength="72" x="570" y="101.1245">bool status()</text><text fill="#000000" font-family="sans-serif" font-size="11" lengthAdjust="spacingAndGlyphs" textLength="27" x="570" y="113.9292">tick()</text><text fill="#000000" font-family="sans-serif" font-size="11" lengthAdjust="spacingAndGlyphs" textLength="139" x="570" y="126.7339">add_item(type, count=0)</text><rect fill="#FEFECE" filter="url(#f1)" height="163.2422" style="stroke: #A80036; stroke-width: 1.5;" width="105" x="169" y="410.5"/><ellipse cx="204.7" cy="426.5" fill="#ADD1B2" rx="11" ry="11" style="stroke: #A80036; stroke-width: 1.0;"/><path d="M207.6688,432.1406 Q207.0906,432.4375 206.45,432.5859 Q205.8094,432.7344 205.1063,432.7344 Q202.6063,432.7344 201.2859,431.0859 Q199.9656,429.4375 199.9656,426.3125 Q199.9656,423.1875 201.2859,421.5313 Q202.6063,419.875 205.1063,419.875 Q205.8094,419.875 206.4578,420.0313 Q207.1063,420.1875 207.6688,420.4844 L207.6688,423.2031 Q207.0438,422.625 206.45,422.3516 Q205.8563,422.0781 205.2313,422.0781 Q203.8875,422.0781 203.2,423.1484 Q202.5125,424.2188 202.5125,426.3125 Q202.5125,428.4063 203.2,429.4766 Q203.8875,430.5469 205.2313,430.5469 Q205.8563,430.5469 206.45,430.2734 Q207.0438,430 207.6688,429.4219 L207.6688,432.1406 Z "/><text fill="#000000" font-family="sans-serif" font-size="12" lengthAdjust="spacingAndGlyphs" textLength="27" x="223.3" y="430.6543">item</text><line style="stroke: #A80036; stroke-width: 1.5;" x1="170" x2="273" y1="442.5" y2="442.5"/><text fill="#000000" font-family="sans-serif" font-size="11" lengthAdjust="spacingAndGlyphs" textLength="53" x="175" y="456.7104">int health</text><text fill="#000000" font-family="sans-serif" font-size="11" lengthAdjust="spacingAndGlyphs" textLength="52" x="175" y="469.5151">int attack</text><text fill="#000000" font-family="sans-serif" font-size="11" lengthAdjust="spacingAndGlyphs" textLength="57" x="175" y="482.3198">int defend</text><text fill="#000000" font-family="sans-serif" font-size="11" lengthAdjust="spacingAndGlyphs" textLength="76" x="175" y="495.1245">int price_gold</text><text fill="#000000" font-family="sans-serif" font-size="11" lengthAdjust="spacingAndGlyphs" textLength="77" x="175" y="507.9292">int price_food</text><text fill="#000000" font-family="sans-serif" font-size="11" lengthAdjust="spacingAndGlyphs" textLength="93" x="175" y="520.7339">int price_villager</text><text fill="#000000" font-family="sans-serif" font-size="11" lengthAdjust="spacingAndGlyphs" textLength="67" x="175" y="533.5386">int run_gold</text><text fill="#000000" font-family="sans-serif" font-size="11" lengthAdjust="spacingAndGlyphs" textLength="68" x="175" y="546.3433">int run_food</text><line style="stroke: #A80036; stroke-width: 1.5;" x1="170" x2="273" y1="552.9375" y2="552.9375"/><text fill="#000000" font-family="sans-serif" font-size="11" lengthAdjust="spacingAndGlyphs" textLength="65" x="175" y="567.1479">[] getType()</text><polygon fill="#FBFB77" filter="url(#f1)" points="308,456.5,308,527.0313,616,527.0313,616,466.5,606,456.5,308,456.5" style="stroke: #A80036; stroke-width: 1.0;"/><polygon fill="#FBFB77" points="308,456.5,308,488,273.248,492,308,496,308,527.0313,616,527.0313,616,466.5,606,456.5,308,456.5" style="stroke: #A80036; stroke-width: 1.0;"/><line style="stroke: #A80036; stroke-width: 1.0;" x1="606" x2="606" y1="456.5" y2="466.5"/><line style="stroke: #A80036; stroke-width: 1.0;" x1="616" x2="606" y1="466.5" y2="466.5"/><text fill="#000000" font-family="sans-serif" font-size="13" lengthAdjust="spacingAndGlyphs" textLength="287" x="314" y="473.5669">"getType() e.g. ['item','person','troop','horse']</text><text fill="#000000" font-family="sans-serif" font-size="13" lengthAdjust="spacingAndGlyphs" textLength="69" x="314" y="488.6997">to use like:</text><text fill="#000000" font-family="sans-serif" font-size="13" lengthAdjust="spacingAndGlyphs" textLength="200" x="314" y="503.8325">'troop' in spear.getType() : True</text><text fill="#000000" font-family="sans-serif" font-size="13" lengthAdjust="spacingAndGlyphs" textLength="225" x="314" y="518.9653">'building' in spear.getType() : False"</text><rect fill="#FEFECE" filter="url(#f1)" height="48" style="stroke: #A80036; stroke-width: 1.5;" width="88" x="113" y="302"/><ellipse cx="128" cy="318" fill="#ADD1B2" rx="11" ry="11" style="stroke: #A80036; stroke-width: 1.0;"/><path d="M130.9688,323.6406 Q130.3906,323.9375 129.75,324.0859 Q129.1094,324.2344 128.4063,324.2344 Q125.9063,324.2344 124.5859,322.5859 Q123.2656,320.9375 123.2656,317.8125 Q123.2656,314.6875 124.5859,313.0313 Q125.9063,311.375 128.4063,311.375 Q129.1094,311.375 129.7578,311.5313 Q130.4063,311.6875 130.9688,311.9844 L130.9688,314.7031 Q130.3438,314.125 129.75,313.8516 Q129.1563,313.5781 128.5313,313.5781 Q127.1875,313.5781 126.5,314.6484 Q125.8125,315.7188 125.8125,317.8125 Q125.8125,319.9063 126.5,320.9766 Q127.1875,322.0469 128.5313,322.0469 Q129.1563,322.0469 129.75,321.7734 Q130.3438,321.5 130.9688,320.9219 L130.9688,323.6406 Z "/><text fill="#000000" font-family="sans-serif" font-size="12" lengthAdjust="spacingAndGlyphs" textLength="56" x="142" y="322.1543">buildings</text><line style="stroke: #A80036; stroke-width: 1.5;" x1="114" x2="200" y1="334" y2="334"/><line style="stroke: #A80036; stroke-width: 1.5;" x1="114" x2="200" y1="342" y2="342"/><rect fill="#FEFECE" filter="url(#f1)" height="48" style="stroke: #A80036; stroke-width: 1.5;" width="60" x="6" y="194"/><ellipse cx="21" cy="210" fill="#ADD1B2" rx="11" ry="11" style="stroke: #A80036; stroke-width: 1.0;"/><path d="M23.9688,215.6406 Q23.3906,215.9375 22.75,216.0859 Q22.1094,216.2344 21.4063,216.2344 Q18.9063,216.2344 17.5859,214.5859 Q16.2656,212.9375 16.2656,209.8125 Q16.2656,206.6875 17.5859,205.0313 Q18.9063,203.375 21.4063,203.375 Q22.1094,203.375 22.7578,203.5313 Q23.4063,203.6875 23.9688,203.9844 L23.9688,206.7031 Q23.3438,206.125 22.75,205.8516 Q22.1563,205.5781 21.5313,205.5781 Q20.1875,205.5781 19.5,206.6484 Q18.8125,207.7188 18.8125,209.8125 Q18.8125,211.9063 19.5,212.9766 Q20.1875,214.0469 21.5313,214.0469 Q22.1563,214.0469 22.75,213.7734 Q23.3438,213.5 23.9688,212.9219 L23.9688,215.6406 Z "/><text fill="#000000" font-family="sans-serif" font-size="12" lengthAdjust="spacingAndGlyphs" textLength="28" x="35" y="214.1543">farm</text><line style="stroke: #A80036; stroke-width: 1.5;" x1="7" x2="65" y1="226" y2="226"/><line style="stroke: #A80036; stroke-width: 1.5;" x1="7" x2="65" y1="234" y2="234"/><rect fill="#FEFECE" filter="url(#f1)" height="48" style="stroke: #A80036; stroke-width: 1.5;" width="112" x="101" y="194"/><ellipse cx="116" cy="210" fill="#ADD1B2" rx="11" ry="11" style="stroke: #A80036; stroke-width: 1.0;"/><path d="M118.9688,215.6406 Q118.3906,215.9375 117.75,216.0859 Q117.1094,216.2344 116.4063,216.2344 Q113.9063,216.2344 112.5859,214.5859 Q111.2656,212.9375 111.2656,209.8125 Q111.2656,206.6875 112.5859,205.0313 Q113.9063,203.375 116.4063,203.375 Q117.1094,203.375 117.7578,203.5313 Q118.4063,203.6875 118.9688,203.9844 L118.9688,206.7031 Q118.3438,206.125 117.75,205.8516 Q117.1563,205.5781 116.5313,205.5781 Q115.1875,205.5781 114.5,206.6484 Q113.8125,207.7188 113.8125,209.8125 Q113.8125,211.9063 114.5,212.9766 Q115.1875,214.0469 116.5313,214.0469 Q117.1563,214.0469 117.75,213.7734 Q118.3438,213.5 118.9688,212.9219 L118.9688,215.6406 Z "/><text fill="#000000" font-family="sans-serif" font-size="12" lengthAdjust="spacingAndGlyphs" textLength="80" x="130" y="214.1543">manufacture</text><line style="stroke: #A80036; stroke-width: 1.5;" x1="102" x2="212" y1="226" y2="226"/><line style="stroke: #A80036; stroke-width: 1.5;" x1="102" x2="212" y1="234" y2="234"/><rect fill="#FEFECE" filter="url(#f1)" height="48" style="stroke: #A80036; stroke-width: 1.5;" width="76" x="248" y="302"/><ellipse cx="263" cy="318" fill="#ADD1B2" rx="11" ry="11" style="stroke: #A80036; stroke-width: 1.0;"/><path d="M265.9688,323.6406 Q265.3906,323.9375 264.75,324.0859 Q264.1094,324.2344 263.4063,324.2344 Q260.9063,324.2344 259.5859,322.5859 Q258.2656,320.9375 258.2656,317.8125 Q258.2656,314.6875 259.5859,313.0313 Q260.9063,311.375 263.4063,311.375 Q264.1094,311.375 264.7578,311.5313 Q265.4063,311.6875 265.9688,311.9844 L265.9688,314.7031 Q265.3438,314.125 264.75,313.8516 Q264.1563,313.5781 263.5313,313.5781 Q262.1875,313.5781 261.5,314.6484 Q260.8125,315.7188 260.8125,317.8125 Q260.8125,319.9063 261.5,320.9766 Q262.1875,322.0469 263.5313,322.0469 Q264.1563,322.0469 264.75,321.7734 Q265.3438,321.5 265.9688,320.9219 L265.9688,323.6406 Z "/><text fill="#000000" font-family="sans-serif" font-size="12" lengthAdjust="spacingAndGlyphs" textLength="44" x="277" y="322.1543">person</text><line style="stroke: #A80036; stroke-width: 1.5;" x1="249" x2="323" y1="334" y2="334"/><line style="stroke: #A80036; stroke-width: 1.5;" x1="249" x2="323" y1="342" y2="342"/><rect fill="#FEFECE" filter="url(#f1)" height="48" style="stroke: #A80036; stroke-width: 1.5;" width="76" x="248" y="194"/><ellipse cx="263" cy="210" fill="#ADD1B2" rx="11" ry="11" style="stroke: #A80036; stroke-width: 1.0;"/><path d="M265.9688,215.6406 Q265.3906,215.9375 264.75,216.0859 Q264.1094,216.2344 263.4063,216.2344 Q260.9063,216.2344 259.5859,214.5859 Q258.2656,212.9375 258.2656,209.8125 Q258.2656,206.6875 259.5859,205.0313 Q260.9063,203.375 263.4063,203.375 Q264.1094,203.375 264.7578,203.5313 Q265.4063,203.6875 265.9688,203.9844 L265.9688,206.7031 Q265.3438,206.125 264.75,205.8516 Q264.1563,205.5781 263.5313,205.5781 Q262.1875,205.5781 261.5,206.6484 Q260.8125,207.7188 260.8125,209.8125 Q260.8125,211.9063 261.5,212.9766 Q262.1875,214.0469 263.5313,214.0469 Q264.1563,214.0469 264.75,213.7734 Q265.3438,213.5 265.9688,212.9219 L265.9688,215.6406 Z "/><text fill="#000000" font-family="sans-serif" font-size="12" lengthAdjust="spacingAndGlyphs" textLength="44" x="277" y="214.1543">villager</text><line style="stroke: #A80036; stroke-width: 1.5;" x1="249" x2="323" y1="226" y2="226"/><line style="stroke: #A80036; stroke-width: 1.5;" x1="249" x2="323" y1="234" y2="234"/><rect fill="#FEFECE" filter="url(#f1)" height="48" style="stroke: #A80036; stroke-width: 1.5;" width="66" x="359" y="194"/><ellipse cx="374" cy="210" fill="#ADD1B2" rx="11" ry="11" style="stroke: #A80036; stroke-width: 1.0;"/><path d="M376.9688,215.6406 Q376.3906,215.9375 375.75,216.0859 Q375.1094,216.2344 374.4063,216.2344 Q371.9063,216.2344 370.5859,214.5859 Q369.2656,212.9375 369.2656,209.8125 Q369.2656,206.6875 370.5859,205.0313 Q371.9063,203.375 374.4063,203.375 Q375.1094,203.375 375.7578,203.5313 Q376.4063,203.6875 376.9688,203.9844 L376.9688,206.7031 Q376.3438,206.125 375.75,205.8516 Q375.1563,205.5781 374.5313,205.5781 Q373.1875,205.5781 372.5,206.6484 Q371.8125,207.7188 371.8125,209.8125 Q371.8125,211.9063 372.5,212.9766 Q373.1875,214.0469 374.5313,214.0469 Q375.1563,214.0469 375.75,213.7734 Q376.3438,213.5 376.9688,212.9219 L376.9688,215.6406 Z "/><text fill="#000000" font-family="sans-serif" font-size="12" lengthAdjust="spacingAndGlyphs" textLength="34" x="388" y="214.1543">troop</text><line style="stroke: #A80036; stroke-width: 1.5;" x1="360" x2="424" y1="226" y2="226"/><line style="stroke: #A80036; stroke-width: 1.5;" x1="360" x2="424" y1="234" y2="234"/><rect fill="#FEFECE" filter="url(#f1)" height="48" style="stroke: #A80036; stroke-width: 1.5;" width="68" x="255" y="47"/><ellipse cx="270" cy="63" fill="#ADD1B2" rx="11" ry="11" style="stroke: #A80036; stroke-width: 1.0;"/><path d="M272.9688,68.6406 Q272.3906,68.9375 271.75,69.0859 Q271.1094,69.2344 270.4063,69.2344 Q267.9063,69.2344 266.5859,67.5859 Q265.2656,65.9375 265.2656,62.8125 Q265.2656,59.6875 266.5859,58.0313 Q267.9063,56.375 270.4063,56.375 Q271.1094,56.375 271.7578,56.5313 Q272.4063,56.6875 272.9688,56.9844 L272.9688,59.7031 Q272.3438,59.125 271.75,58.8516 Q271.1563,58.5781 270.5313,58.5781 Q269.1875,58.5781 268.5,59.6484 Q267.8125,60.7188 267.8125,62.8125 Q267.8125,64.9063 268.5,65.9766 Q269.1875,67.0469 270.5313,67.0469 Q271.1563,67.0469 271.75,66.7734 Q272.3438,66.5 272.9688,65.9219 L272.9688,68.6406 Z "/><text fill="#000000" font-family="sans-serif" font-size="12" lengthAdjust="spacingAndGlyphs" textLength="36" x="284" y="67.1543">spear</text><line style="stroke: #A80036; stroke-width: 1.5;" x1="256" x2="322" y1="79" y2="79"/><line style="stroke: #A80036; stroke-width: 1.5;" x1="256" x2="322" y1="87" y2="87"/><rect fill="#FEFECE" filter="url(#f1)" height="48" style="stroke: #A80036; stroke-width: 1.5;" width="69" x="358" y="47"/><ellipse cx="373" cy="63" fill="#ADD1B2" rx="11" ry="11" style="stroke: #A80036; stroke-width: 1.0;"/><path d="M375.9688,68.6406 Q375.3906,68.9375 374.75,69.0859 Q374.1094,69.2344 373.4063,69.2344 Q370.9063,69.2344 369.5859,67.5859 Q368.2656,65.9375 368.2656,62.8125 Q368.2656,59.6875 369.5859,58.0313 Q370.9063,56.375 373.4063,56.375 Q374.1094,56.375 374.7578,56.5313 Q375.4063,56.6875 375.9688,56.9844 L375.9688,59.7031 Q375.3438,59.125 374.75,58.8516 Q374.1563,58.5781 373.5313,58.5781 Q372.1875,58.5781 371.5,59.6484 Q370.8125,60.7188 370.8125,62.8125 Q370.8125,64.9063 371.5,65.9766 Q372.1875,67.0469 373.5313,67.0469 Q374.1563,67.0469 374.75,66.7734 Q375.3438,66.5 375.9688,65.9219 L375.9688,68.6406 Z "/><text fill="#000000" font-family="sans-serif" font-size="12" lengthAdjust="spacingAndGlyphs" textLength="37" x="387" y="67.1543">sword</text><line style="stroke: #A80036; stroke-width: 1.5;" x1="359" x2="426" y1="79" y2="79"/><line style="stroke: #A80036; stroke-width: 1.5;" x1="359" x2="426" y1="87" y2="87"/><rect fill="#FEFECE" filter="url(#f1)" height="48" style="stroke: #A80036; stroke-width: 1.5;" width="68" x="461" y="47"/><ellipse cx="476" cy="63" fill="#ADD1B2" rx="11" ry="11" style="stroke: #A80036; stroke-width: 1.0;"/><path d="M478.9688,68.6406 Q478.3906,68.9375 477.75,69.0859 Q477.1094,69.2344 476.4063,69.2344 Q473.9063,69.2344 472.5859,67.5859 Q471.2656,65.9375 471.2656,62.8125 Q471.2656,59.6875 472.5859,58.0313 Q473.9063,56.375 476.4063,56.375 Q477.1094,56.375 477.7578,56.5313 Q478.4063,56.6875 478.9688,56.9844 L478.9688,59.7031 Q478.3438,59.125 477.75,58.8516 Q477.1563,58.5781 476.5313,58.5781 Q475.1875,58.5781 474.5,59.6484 Q473.8125,60.7188 473.8125,62.8125 Q473.8125,64.9063 474.5,65.9766 Q475.1875,67.0469 476.5313,67.0469 Q477.1563,67.0469 477.75,66.7734 Q478.3438,66.5 478.9688,65.9219 L478.9688,68.6406 Z "/><text fill="#000000" font-family="sans-serif" font-size="12" lengthAdjust="spacingAndGlyphs" textLength="36" x="490" y="67.1543">horse</text><line style="stroke: #A80036; stroke-width: 1.5;" x1="462" x2="528" y1="79" y2="79"/><line style="stroke: #A80036; stroke-width: 1.5;" x1="462" x2="528" y1="87" y2="87"/><path d="M166.306,350.138 C170.742,361.644 176.377,376.259 182.334,391.711 " fill="none" style="stroke: #A80036; stroke-width: 1.0;"/><polygon fill="none" points="188.899,389.279,189.562,410.458,175.836,394.315,188.899,389.279" style="stroke: #A80036; stroke-width: 1.0;"/><path d="M63.1548,242.237 C78.4119,255.855 97.7836,273.146 114.96,288.477 " fill="none" style="stroke: #A80036; stroke-width: 1.0;"/><polygon fill="none" points="119.676,283.303,129.936,301.844,110.354,293.748,119.676,283.303" style="stroke: #A80036; stroke-width: 1.0;"/><path d="M157,242.237 C157,253.91 157,268.281 157,281.803 " fill="none" style="stroke: #A80036; stroke-width: 1.0;"/><polygon fill="none" points="164,281.844,157,301.844,150,281.844,164,281.844" style="stroke: #A80036; stroke-width: 1.0;"/><path d="M276.548,350.138 C272.043,361.644 266.32,376.259 260.27,391.711 " fill="none" style="stroke: #A80036; stroke-width: 1.0;"/><polygon fill="none" points="266.74,394.387,252.929,410.458,253.703,389.282,266.74,394.387" style="stroke: #A80036; stroke-width: 1.0;"/><path d="M286,242.237 C286,253.91 286,268.281 286,281.803 " fill="none" style="stroke: #A80036; stroke-width: 1.0;"/><polygon fill="none" points="293,281.844,286,301.844,279,281.844,293,281.844" style="stroke: #A80036; stroke-width: 1.0;"/><path d="M368.212,242.237 C355.119,255.577 338.567,272.442 323.752,287.536 " fill="none" style="stroke: #A80036; stroke-width: 1.0;"/><polygon fill="none" points="328.714,292.473,309.709,301.844,318.723,282.667,328.714,292.473" style="stroke: #A80036; stroke-width: 1.0;"/><path d="M306.008,95.274 C321.589,117.51 344.964,150.871 363.413,177.2 " fill="none" style="stroke: #A80036; stroke-width: 1.0;"/><polygon fill="none" points="369.222,173.294,374.966,193.69,357.757,181.327,369.222,173.294" style="stroke: #A80036; stroke-width: 1.0;"/><path d="M392,95.274 C392,116.446 392,147.704 392,173.375 " fill="none" style="stroke: #A80036; stroke-width: 1.0;"/><polygon fill="none" points="399,173.69,392,193.69,385,173.69,399,173.69" style="stroke: #A80036; stroke-width: 1.0;"/><path d="M477.992,95.274 C462.411,117.51 439.036,150.871 420.587,177.2 " fill="none" style="stroke: #A80036; stroke-width: 1.0;"/><polygon fill="none" points="426.243,181.327,409.034,193.69,414.778,173.294,426.243,181.327" style="stroke: #A80036; stroke-width: 1.0;"/></g></svg>